<svg width="1623" height="152" viewBox="0 0 1623 152" fill="none" xmlns="http://www.w3.org/2000/svg">
<path d="M39.1102 21.1186C24.1102 27.6186 16.1102 46.6186 12.6102 49.1186C9.11013 51.6186 -1.38982 47.1186 1.11018 42.1186C3.61018 37.1186 9.4859 26.4673 18.1102 19.6186C26.8047 12.7141 37.1102 10.6186 44.1102 8.11856C51.1101 5.61856 80.8022 -0.960757 104.61 0.11856C126.953 1.13146 138.909 6.70748 160.61 12.1186C189.265 19.2633 203.826 29.8029 233.11 33.6186C261.971 37.379 278.754 35.4097 307.61 31.6186C340.573 27.288 357.354 16.3046 390.11 10.6186C422.194 5.04917 440.548 2.33726 473.11 2.61856C512.322 2.9573 535.409 3.71907 572.61 16.1186C595.07 23.6048 604.8 35.2785 627.61 41.6186C652.817 48.6246 668.297 48.2563 694.208 47.64L695.11 47.6186C734.275 46.6885 755.006 35.2858 793.61 28.6186C837.775 20.9909 862.336 13.6124 907.11 11.6186C937.356 10.2717 954.687 9.00861 984.61 13.6186C1017.88 18.7446 1034.56 30.0227 1067.11 38.6186C1101.74 47.7631 1120.85 56.6738 1156.61 58.6186C1200.78 61.0209 1224.91 48.5235 1268.61 41.6186C1301.05 36.493 1318.79 26.8772 1351.61 28.1186C1372.17 28.8964 1383.39 32.8174 1403.61 36.6186C1442.85 43.9942 1463.26 57.7017 1503.11 60.1186C1536.36 62.1347 1574.61 65.6186 1588.11 53.1186C1601.61 40.6186 1604.11 29.1186 1607.11 21.6186C1610.11 14.1186 1624.11 19.6186 1622.61 27.6186C1621.11 35.6186 1615.1 44.6324 1607.11 53.1186C1596.25 64.6533 1582.11 71.1186 1572.11 73.6186C1562.11 76.1185 1529.9 76.4851 1503.11 73.6186C1470.15 70.0919 1453.04 60.4918 1420.61 53.6186C1395.92 48.3862 1382.34 42.294 1357.11 41.6186C1330.69 40.9113 1316.21 46.9652 1290.11 51.1186C1244.57 58.3652 1220.22 73.2854 1174.11 73.1186C1138.76 72.9906 1118.91 68.1501 1084.61 59.6186C1052.13 51.5403 1036.34 38.6347 1003.61 31.6186C965.903 23.5344 943.638 22.9631 905.11 24.6186C867.2 26.2475 846.429 32.7524 809.11 39.6186C775.364 45.8274 757.239 54.0723 723.11 57.6186C688.734 61.1905 667.709 67.5674 634.61 57.6186C616.545 52.1884 608.641 43.5844 591.11 36.6186C567.68 27.3084 553.9 23.2164 529.11 18.6186C490.887 11.5292 468.284 11.6707 429.61 15.6186C393.749 19.2793 375.146 30.0651 339.61 36.1186C303.771 42.2237 283.378 49.1438 247.11 46.6186C217.996 44.5914 202.459 37.5554 174.11 30.6186C147.794 24.179 134.141 14.4554 107.11 12.6186C80.4094 10.8041 54.1101 14.6186 39.1102 21.1186Z" fill="#A99FEA"/>
<path d="M39.3807 97.1186C24.3807 103.619 16.3807 122.619 12.8807 125.119C9.38064 127.619 -1.11932 123.119 1.38068 118.119C3.88068 113.119 9.75641 102.467 18.3807 95.6186C27.0752 88.7141 37.3808 86.6186 44.3807 84.1186C51.3806 81.6186 81.0727 75.0392 104.881 76.1186C127.224 77.1315 139.179 82.7075 160.881 88.1186C189.535 95.2633 204.096 105.803 233.381 109.619C262.241 113.379 279.024 111.41 307.881 107.619C340.843 103.288 357.625 92.3046 390.381 86.6186C422.465 81.0492 440.818 78.3373 473.381 78.6186C512.592 78.9573 535.679 79.7191 572.881 92.1186C595.341 99.6048 605.07 111.279 627.881 117.619C653.087 124.625 668.567 124.256 694.478 123.64L695.381 123.619C734.545 122.688 755.276 111.286 793.881 104.619C838.046 96.9909 862.606 89.6124 907.381 87.6186C937.626 86.2717 954.958 85.0086 984.881 89.6186C1018.15 94.7446 1034.83 106.023 1067.38 114.619C1102.01 123.763 1121.12 132.674 1156.88 134.619C1201.06 137.021 1225.18 124.524 1268.88 117.619C1301.32 112.493 1319.06 102.877 1351.88 104.119C1372.44 104.896 1383.66 108.817 1403.88 112.619C1443.12 119.994 1463.53 133.702 1503.38 136.119C1536.63 138.135 1574.88 141.619 1588.38 129.119C1601.88 116.619 1604.38 105.119 1607.38 97.6186C1610.38 90.1186 1624.38 95.6186 1622.88 103.619C1621.38 111.619 1615.37 120.632 1607.38 129.119C1596.52 140.653 1582.38 147.119 1572.38 149.619C1562.38 152.119 1530.17 152.485 1503.38 149.619C1470.42 146.092 1453.31 136.492 1420.88 129.619C1396.19 124.386 1382.61 118.294 1357.38 117.619C1330.96 116.911 1316.48 122.965 1290.38 127.119C1244.85 134.365 1220.49 149.285 1174.38 149.119C1139.03 148.991 1119.18 144.15 1084.88 135.619C1052.4 127.54 1036.61 114.635 1003.88 107.619C966.174 99.5344 943.909 98.9631 905.381 100.619C867.47 102.248 846.699 108.752 809.381 115.619C775.634 121.827 757.51 130.072 723.381 133.619C689.004 137.191 667.979 143.567 634.881 133.619C616.815 128.188 608.911 119.584 591.381 112.619C567.95 103.308 554.17 99.2164 529.381 94.6186C491.158 87.5292 468.555 87.6707 429.881 91.6186C394.02 95.2793 375.416 106.065 339.881 112.119C304.042 118.224 283.648 125.144 247.381 122.619C218.266 120.591 202.729 113.555 174.381 106.619C148.064 100.179 134.411 90.4554 107.381 88.6186C80.6799 86.8041 54.3806 90.6186 39.3807 97.1186Z" fill="#A99FEA"/>
</svg>
