<svg xmlns="http://www.w3.org/2000/svg" viewBox="0 0 208.92 58.04"><defs><style>.cls-1{fill:#463f3a;}</style></defs><g id="Capa_2" data-name="Capa 2"><g id="Capa_1-2" data-name="Capa 1"><path class="cls-1" d="M36.86,17.71q0,8-4.12,12.85T21,35.51c-1.23,0-3.1,0-5.6-.15s-4.37-.15-5.63-.15c-.69,0-1,.46-1,1.4,0,1.2.07,3,.21,5.43s.21,4.23.21,5.44c0,.38-.21.58-.62.58S7.36,48,6.44,47.9s-1.6-.15-2.06-.15-1,0-1.72.1S1.34,48,1,48c-.54,0-.81-.35-.81-1.06,0-2.48.11-6.23.31-11.24s.31-8.77.31-11.28Q.78,13.71,0,1.47L0,1Q0,.21.84.21l5.28,0,5.3,0c1,0,2.54,0,4.58-.13S19.55,0,20.57,0A15.13,15.13,0,0,1,32.35,5.13,18.11,18.11,0,0,1,36.86,17.71Zm-8.18.51A12.19,12.19,0,0,0,26.05,10,9.32,9.32,0,0,0,18.53,6.8c-1,0-2.77.09-5.32.28-2.92.18-4.43.36-4.51.54s-.23,4.2-.23,11.76c0,1,0,2.39.08,4.31S8.63,27,8.63,28c0,.21.24.37.71.48a71.51,71.51,0,0,0,9.9.38,8.75,8.75,0,0,0,7.07-3A11.55,11.55,0,0,0,28.68,18.22Z"/><path class="cls-1" d="M60.06,15.86a43.36,43.36,0,0,1-.49,6.84c-.06.52-.28.78-.65.78s-1.14-.05-2.06-.15-1.61-.16-2.09-.16q-4.1,0-5.22,2.43-.69,1.47-.69,6.12v3.76c0,1.27,0,3.21.15,5.81s.15,4.53.15,5.81c0,.61-.25.92-.75.92l-3,0c-1.36,0-2.38,0-3,0-.5,0-.75-.28-.75-.85q0-2.77.08-8.34c.06-3.71.09-6.51.09-8.37a49.77,49.77,0,0,0-1.5-13.57,2.2,2.2,0,0,1-.06-.41.58.58,0,0,1,.42-.58L44,15.42q3.49-.69,3.24-.69c.34,0,.57.67.68,2s.3,2,.58,2a.35.35,0,0,0,.17-.06c.88-.6,1.77-1.19,2.66-1.78a11.71,11.71,0,0,1,3-1.37,10.9,10.9,0,0,1,3.25-.41C59.21,15.14,60.06,15.38,60.06,15.86Z"/><path class="cls-1" d="M93,31.31a17.86,17.86,0,0,1-4.44,12.2,14.8,14.8,0,0,1-22.55,0,17.66,17.66,0,0,1-4.45-12.16A17.71,17.71,0,0,1,66,19.21a14.92,14.92,0,0,1,22.52,0A17.5,17.5,0,0,1,93,31.31Zm-6.84.07a10.75,10.75,0,0,0-2.44-7.11,7.89,7.89,0,0,0-6.42-3.11,8.05,8.05,0,0,0-6.46,3.07,11,11,0,0,0-2.43,7.15,10.9,10.9,0,0,0,2.46,7.11,8,8,0,0,0,6.43,3.18,7.93,7.93,0,0,0,6.42-3.18A10.94,10.94,0,0,0,86.18,31.38Z"/><path class="cls-1" d="M105.84,16.24q0,2.25-.2,6.78t-.19,6.82q0,2.49.06,7.5t.07,7.54q0,9.84-8.44,12.41a13.43,13.43,0,0,1-3.5.75c-.35,0-.56-.24-.65-.72a4.43,4.43,0,0,1-.06-1.44C93,55,93,54.64,93,54.76a10.74,10.74,0,0,0-.11-1.35,10.93,10.93,0,0,1-.11-1.32q0-.62.42-.72c2.16-.41,3.54-.92,4.15-1.54s1.1-2.31,1.1-4.61q0-2.46-.13-7.35c-.08-3.26-.13-5.71-.13-7.35q0-4.85-.74-13.57l0-.37c0-.32.19-.53.58-.62.13,0,1.31-.16,3.54-.34s3.48-.27,3.76-.27S105.84,15.64,105.84,16.24ZM106.26,7q0,4.13-4.54,4.13a4.77,4.77,0,0,1-3.15-1A3.81,3.81,0,0,1,97.21,7a4,4,0,0,1,1.36-3.15,5,5,0,0,1,6.3,0A4,4,0,0,1,106.26,7Z"/><path class="cls-1" d="M139.78,29.6A3.29,3.29,0,0,1,137.7,33q-1.39.56-20.08,2a7.77,7.77,0,0,0,3.14,5.13,8.94,8.94,0,0,0,5.58,2,14.58,14.58,0,0,0,9.41-3.48l1-.89a.52.52,0,0,1,.34.07c.06,0,.46.83,1.22,2.37a21.39,21.39,0,0,1,1.14,2.48c0,.14-.18.4-.52.79a15.69,15.69,0,0,1-12.24,5.33c-5,0-9-1.58-12-4.73s-4.48-7.37-4.48-12.63a18.82,18.82,0,0,1,4.28-12.28,13.88,13.88,0,0,1,11.07-5.43,12.93,12.93,0,0,1,10.19,4.72A16.35,16.35,0,0,1,139.78,29.6Zm-7.72-2.09a7,7,0,0,0-2.13-5,6.53,6.53,0,0,0-4.79-2.19,7,7,0,0,0-5.3,2.53,8.19,8.19,0,0,0-2.32,5.68c0,.47.39.71,1.17.71a77.67,77.67,0,0,0,11.48-1Q132.06,27.93,132.06,27.51Z"/><path class="cls-1" d="M167,17a16.36,16.36,0,0,1-.75,3.35c-.5,1.74-.84,2.6-1,2.6l-2.93-1.37a7.69,7.69,0,0,0-3.23-.68A8.4,8.4,0,0,0,152.37,24a10.9,10.9,0,0,0-2.66,7.35,10.56,10.56,0,0,0,2.66,7.21A8.46,8.46,0,0,0,159,41.67a9,9,0,0,0,4.28-1.13c1.41-.75,2-1.13,1.85-1.13.28,0,.59,1,.94,2.87a22.79,22.79,0,0,1,.49,3.59c0,.71-1.27,1.4-3.8,2.08a20.42,20.42,0,0,1-4.7.86,14.44,14.44,0,0,1-11.29-5.27,17.86,17.86,0,0,1-4.51-12.23A18.1,18.1,0,0,1,146.69,19,14.43,14.43,0,0,1,158,13.81a15,15,0,0,1,8.31,2.43C166.75,16.51,167,16.75,167,17Z"/><path class="cls-1" d="M189.09,41.67c0,.5,0,1.18-.12,2-.11,1.07-.18,1.76-.2,2.08a2.41,2.41,0,0,1-.1.75,1.34,1.34,0,0,1-.61.48q-2.67,1.34-8.37,1.33-7.6,0-7.6-7.24c0-1.94,0-4.85.13-8.73s.13-6.8.13-8.74a1.31,1.31,0,0,0-1.33-1.5c-.8,0-1.59,0-2.37,0-.45-.11-.68-1-.68-2.8a19.18,19.18,0,0,1,.13-2.08,1.11,1.11,0,0,1,1-1c.54,0,1.07,0,1.59,0,1,0,1.49-.51,1.49-1.4s0-2.3-.08-4.17-.08-3.27-.08-4.2c0-1.67.3-2.5.91-2.5.19,0,2.23.35,6.1,1.06q.75.1.75.75c0,1-.07,2.51-.22,4.51s-.21,3.51-.21,4.52c0,.66.3,1,.88,1h7.79c.36,0,.55.13.55.41a11.22,11.22,0,0,1-.12,1.31,13.53,13.53,0,0,0-.11,1.35c0,.34,0,.87,0,1.58s0,1.23,0,1.57-.31.65-.91.65c-.87,0-2.18-.07-3.93-.19s-3.06-.19-3.92-.19q-.27,0-.39,1.95c-.11,1.62-.17,3.88-.17,6.8v5.09a11.39,11.39,0,0,0,.52,4.11A3.15,3.15,0,0,0,182.87,42a13.84,13.84,0,0,0,2.95-.46,13.78,13.78,0,0,1,2.89-.46C189,41.05,189.09,41.25,189.09,41.67Z"/><path class="cls-1" d="M208.92,37.43a10,10,0,0,1-3.86,8.17,13.29,13.29,0,0,1-8.54,2.8,12.51,12.51,0,0,1-2.2-.1c-.37-.19-.55-.74-.55-1.68a20.71,20.71,0,0,0-.18-2.25,21,21,0,0,1-.18-2.23c0-.29.19-.49.58-.58a3.39,3.39,0,0,1,1.2,0l1,.11c4.09,0,6.13-1.33,6.13-4q0-1.87-2.69-3.45a50,50,0,0,1-5-3.11,8.14,8.14,0,0,1-2.69-6.36,9.6,9.6,0,0,1,3.66-8,13.27,13.27,0,0,1,8.37-2.56.71.71,0,0,1,.67.44,24.44,24.44,0,0,1,.81,2.77,18.45,18.45,0,0,1,.6,2.8c0,.26-.21.41-.62.48-1.38.21-2.78.4-4.18.58-1.67.48-2.5,1.44-2.5,2.88,0,1,.87,2.06,2.63,3.11a30.4,30.4,0,0,1,4.93,3.31A9.29,9.29,0,0,1,208.92,37.43Z"/></g></g></svg>