<svg xmlns="http://www.w3.org/2000/svg" viewBox="0 0 416.72 583.71"><defs><style>.cls-1{fill:#463f3a;}.cls-2{fill:#bcb8b1;}.cls-3{fill:#7765e3;}</style></defs><g id="Capa_2" data-name="Capa 2"><g id="Capa_1-2" data-name="Capa 1"><path class="cls-1" d="M197.85,210.47c.9-3.4-9.85-7.42-18.68-14.69-6.2-5.1-13.52-13.5-18.69-28a19.28,19.28,0,0,1-10.68-4c-8.17-6.58-9-19.78-4-28,1.77-3,6.26-8.61,10.67-8,2.9.39,4.46,3.3,9.35,4a14.55,14.55,0,0,0,4,0c.06-3.21,0-5.93,0-8-.32-17.57-2.7-29.89,2.67-36a13,13,0,0,1,1.34-1.33c4.55-3.81,9.34-1,12-4,1.94-2.15,2.12-5.64,1.34-8-1.2-3.6-4.22-3.4-5.34-6.67-1.24-3.58.79-8.45,4-10.68,2.9-2,5.14-.82,10.68-1.34,6-.56,6.56-2.3,16-5.33,5.27-1.7,9.3-2.47,17.35-4,3-.58,9.82-1.86,17.35-2.67,27.1-2.89,42.43,2.7,50.73,0,.94-.31,4.18-1.5,6.67,0,1.61,1,1.59,2.27,2.67,2.67,2.61,1,8.62-4.41,10.68-10.68,3.12-9.53-2.15-22.24-10.68-26.69-4.44-2.32-6.46-.67-17.35-4-7-2.14-6.34-2.88-10.68-4C268.33-1.95,265,3,249.91,2.23c-7.69-.36-8.7-1.72-16-1.33-6.41.33-9.88,1.6-14.68,2.67-14,3.12-18.43-.13-30.7,1.33-10.26,1.22-19.61,2.51-26.7,9.34-4.36,4.21-6.05,8.81-9.34,21.36C146.85,57,144,67.75,143.13,78.32a170.33,170.33,0,0,0,2.67,48.05,31.48,31.48,0,0,0-8,12c-4.38,12-1.91,29.36,8,33.38,1.51.61,6,2.05,13.34-1.34a72.62,72.62,0,0,0,5.34,16c1.91,4.06,12.63,26.9,26.7,26.7C193.67,213.1,197.36,212.33,197.85,210.47Z"/><path class="cls-1" d="M148.46,142.39c1-.43,6.71-2.79,12,0,6,3.18,8.59,11.45,6.67,13.35-1.21,1.2-4.58.21-6.67-1.34-3-2.2-2.54-4.9-5.34-8A14.15,14.15,0,0,0,148.46,142.39Z"/><path class="cls-1" d="M219.21,117.35c-.92-1.37,7.16-11.91,18.69-13.35,8.1-1,17.32,2.53,17.35,5.34,0,1.21-1.69,2.14-2.67,2.67-5.23,2.83-9.93.22-16,0C226.18,111.63,220,118.5,219.21,117.35Z"/><path class="cls-1" d="M288.62,104c1.82-3.71,12.27-1.57,13.35-1.33,9.19,2,16.66,7.91,16,9.34-.44,1-4.22-1.32-12-1.34-8.05,0-11.39,2.41-14.69,0C289.1,109.07,287.7,105.88,288.62,104Z"/><path class="cls-1" d="M241.9,115.69c-3.25-.21-6.31,5-6.67,9.35-.31,3.7,1.16,8.72,4,9.34,3.2.7,7.7-4.28,8-9.34C247.5,120.87,245,115.9,241.9,115.69Z"/><path class="cls-1" d="M303.31,134.38c-3.39.25-7.09-4.73-6.68-9.34s4.72-8.74,8-8,4.92,6.5,4,10.68C308.08,130.28,306.17,134.17,303.31,134.38Z"/><path class="cls-1" d="M275.66,140.67c.69-.94,6,.55,9,4.51,2.57,3.33,4.13,9.1,1.12,13.54-3.4,5.05-10.42,5-14.66,3.39-5.79-2.26-8.54-8.41-7.9-9s6.05,6.65,12.41,5.64c2.94-.47,6.13-2.73,6.77-5.64C283.67,147.43,274.67,142,275.66,140.67Z"/><path class="cls-1" d="M263.26,183.77c4.36-.63,6.3,3.93,12,5.34a12.85,12.85,0,0,0,6.68,0c6.91-2.05,9.16-10.19,12-9.35a2.4,2.4,0,0,1,1.34,1.34c1.7,4-7,15.66-17.36,16-9.61.33-18.48-9.14-17.35-12C261,184.1,262.61,183.86,263.26,183.77Z"/><path class="cls-1" d="M48.35,481.44c-2.23-1.62-13.79,11-14.68,12C25,503,18,514,19,514.81c.67.54,3.91-4.41,13.34-12,7-5.61,11.68-8.15,14.69-14.69C47.29,487.52,49.63,482.36,48.35,481.44Z"/><path class="cls-1" d="M180.5,388c-1.76,4.7-11.46,4.59-33.37,5.34-20.94.72-32,2.05-32,1.33,0-.47,6.65-1.65,20-4,2.72-.48,4.81-.82,7.48-1.13,3.87-.44,5.6-.38,12.54-1.54,15.21-2.54,23.63-5.64,25.36-2.67A3.27,3.27,0,0,1,180.5,388Z"/><path class="cls-1" d="M341.35,388.67a152.29,152.29,0,0,0-32.7-6c-17.39-1.26-33.39.59-33.38,1.33,0,.55,8.52.32,20,1.34a204.47,204.47,0,0,1,41.38,8,248.52,248.52,0,0,1,0,26.7c-1,18.83-1.72,29.29-8,40a53.05,53.05,0,0,1-14.69,16l-40-2.67-8-8c-.44-1.78-.89-3.56-1.33-5.34a4.17,4.17,0,0,0,1.33,0c4.17-.67,6.17-7.6,6.67-9.34,1.41-4.85,0-5,1.34-9.35,1.54-5,3.72-5.77,4-9.34a12.11,12.11,0,0,0-2.67-8c3.12-5.26,3.13-11.54,0-16a13.94,13.94,0,0,0-8-5.34A14.23,14.23,0,0,0,268.6,396a14,14,0,0,0-1.33-5.34,7.91,7.91,0,0,0,5.33-4c1.79-3.81-1-7.61-1.33-8-.72-1-2.62-3-10.68-4S247.34,373,241.9,376a22.17,22.17,0,0,0-9.34,10.67c-4.66,1.75-9.39,3.68-14.16,5.83l-1.86.85c-9.26,4.26-19.06,20.42-29.36,33.37-5,6.31-14.45,18-18.69,16-.71-.34-.78-.82-1.34-1.34-4.86-4.5-24.13,9.35-38.71,17.36a151,151,0,0,1-33.37,13.34,3.19,3.19,0,0,1-2.67,0c-2.85-1.69-.35-10.18,1.34-18.68,0,0,.66-3.35,2.67-24a140.19,140.19,0,0,0-1.34-36c-.21,5.14-2,46.94-6.67,65.41-.87,3.41-2.42,8.4-6.68,10.67-3.25,1.74-6.71,1.18-13.35,0a84.36,84.36,0,0,1-14.68-4,44.54,44.54,0,0,0,16,8c6.58,1.7,14.72,2.05,14.68,2.67,0,.14-.44.22-.61.26s-3,1.27-8.73,3.74c-13.48,5.86-20.22,8.79-20,9.35.27.79,14.71-3.29,29.36-8,21.83-7,39.93-15.37,58.74-24l17.35-8c0,.05-.39,10.88-1.34,22.69-.52,6.56-.88,9.19,0,13.35a46.14,46.14,0,0,0,2.67,8,78.65,78.65,0,0,0,5.34,10.68c-30.21,20.15-57,36-78.75,48-1.29.72-23.42,12.72-50.73,14.69-9.7.7-17.37-.26-22.69-5.34-4.25-4.07-5.83-9.72-6.67-21.36a176.06,176.06,0,0,1,1.33-38.71c7.55-43.33,3.7-34.56,9.35-61.4,4.24-20.18,8.64-34.81,17.35-64.07C41.9,357.31,46.7,342.66,55,325.26c4.46-9.32,7-14.63,12-21.36,4.81-6.5,16.85-22.78,37.38-30.7,11.44-4.41,15.65-2.42,34.7-9.34,6.89-2.5,12.4-5,16-6.67a199.36,199.36,0,0,1,18.69,18.68C183.11,286.5,185,291,192.51,294.56c2.11,1,2.64,1,17.36,5.34,5.67,1.68,10.3,3.08,13.35,4-3.88-2.86-9.82-7.13-17.36-12-10.17-6.59-11.76-6.84-16-10.68-6.11-5.51-6.64-8.4-14.68-17.35a140.36,140.36,0,0,0-10.68-10.68,28.6,28.6,0,0,0,10.68-14.68,113.44,113.44,0,0,0,13.35,10.68c8,5.44,12,8.17,17.35,9.34,6.53,1.43,10.34,0,12,2.67,1.34,2.14-.44,4.16-1.34,10.68a41.7,41.7,0,0,0,0,12,33.63,33.63,0,0,0,6.68,14.68c6,8.21,9.22,6.37,12,12,3.24,6.57-1.57,9.05,1.33,21.36.41,1.71,1.61,5.59,4,13.34,2.88,9.33,3.57,11,4,12a59.33,59.33,0,0,0,8,13.35c.62-14.44-2.36-23.59-5.34-29.37a44.77,44.77,0,0,1-5.34-14.68,32.8,32.8,0,0,1,0-12c.34-1.69.6-2.18,5.34-13.35,2.61-6.12,3.88-9.24,2.67-12-1-2.25-2.62-2.46-2.67-4-.08-2.86,5.48-4.29,12-8,4.45-2.53,12.79-7.28,17.35-14.69a55.81,55.81,0,0,1,8-10.67c.55-.57,1-1,1.33-1.34a28.75,28.75,0,0,0,10.68,14.68c-3,6.36-5.78,11.76-8,16-6.19,11.85-8.36,14.83-12,17.35-2.12,1.47-6.25,4.25-12,4a18.88,18.88,0,0,1-12-5.34,18.45,18.45,0,0,0,10.68,9.34c6.28,1.94,11.6-.52,13.35-1.33,4.11-1.9,7.25-6.19,13.35-14.68,7-9.73,8.53-13.63,9.34-16,2-6,1.78-9.7,1.34-12a17.34,17.34,0,0,0-2.67-6.67c-.76-1.1-2-2.67-8-6.67-4.85-3.26-7.61-4.35-9.35-6.68a14.53,14.53,0,0,1-2.67-8l.86-.29A74.3,74.3,0,0,0,302,221.14a78.46,78.46,0,0,0,16-18.68c4.69-7.75,9.1-18.6,10.68-50.73,0,0,3-61.14-13.35-98.78-.58-1.33-2.37-5.45-2.67-5.33S313.76,52.23,314,53c1.59,5.15,13.56,49.35,8,105.46-2.09,21.12-5.71,34.36-13.34,46.72-3,4.88-5.63,9.1-10.68,13.34-18.11,15.21-43.86,10.76-52.06,9.35a85.38,85.38,0,0,1-21.36-6.68c-.44,1.34-.89,2.67-1.33,4a47.9,47.9,0,0,0,8,5.34,51.87,51.87,0,0,0,17.36,5.34,73.8,73.8,0,0,0,22.69,0,15.42,15.42,0,0,0,4,10.68,14.78,14.78,0,0,0,6.68,4c-8.39,9-15.93,13.56-21.36,16-4.59,2.08-8,4.5-14.68,9.34-2.64,1.9-5.21,3.89-5.34,6.68-.12,2.49,1.84,3,2.67,6.67a14.57,14.57,0,0,1-1.34,9.34,16.3,16.3,0,0,1-4,5.34c-3.36-1.72-9.82-5.73-13.35-13.34-1-2.26-3.41-7.23-2.67-13.35.68-5.65,3.46-7.9,2.67-13.35a13.48,13.48,0,0,0-2.67-6.67c-3.71-4.64-9.09-3.68-17.35-6.68a44.9,44.9,0,0,1-12-6.67,71.16,71.16,0,0,0,5.34-26.7h-8a38.69,38.69,0,0,1,0,16,38.27,38.27,0,0,1-2.66,8,54.79,54.79,0,0,1-9.35-4c-3.72-2-4-2.71-5.34-2.67-4.71.14-4.5,8.18-12,12-1.55.78-3.82,1.6-5.34,4a9.27,9.27,0,0,0-1.34,4,254.94,254.94,0,0,1-29.36,8c-12.32,2.59-16.7,2.35-24,5.34-5.51,2.26-14.9,6.9-26.7,18.69a137,137,0,0,0-28,41.38c-9.93,22.22-21,52.41-40,133.49,0,0-9.31,39.55-4,86.76a28.4,28.4,0,0,0,2.67,9.34c5.39,11,16.86,15.36,18.69,16,10.65,3.86,20.25,1.25,34.71-2.67a127,127,0,0,0,18.68-6.67,31.15,31.15,0,0,0-2.67,9.34c-.45,3.85-.91,7.7,1.34,9.35a4.75,4.75,0,0,0,5.34,0c2.3-1.84.62-5.72,1.33-12a30.17,30.17,0,0,1,2.67-9.34c8.72-3.71,16-6.94,21.36-9.35,0,0,35.17-15.8,64.07-38.71a17.22,17.22,0,0,0,5.34-6.67,16.67,16.67,0,0,0,1.34-6.67,97,97,0,0,1,9.34-4c15.62-5.77,20.8-3.21,34.71-8,11.73-4,17.6-6.07,21.35-12,2.51-4,3.92-9.4,9.35-12a14.4,14.4,0,0,1,6.67-1.33,31.77,31.77,0,0,0,2.67,6.67,32.4,32.4,0,0,0,9.34,10.68L314,482.77a44.48,44.48,0,0,0,13.35-9.34c11.69-12,13.13-27.87,14.69-48.06A195.27,195.27,0,0,0,341.35,388.67ZM245.91,380a12.64,12.64,0,0,1,6.67,0c2.7.57,3,1.27,6.68,2.67,5,1.92,8,2,8,2.67s-2.73,1.34-5.34,1.33c-4.14,0-5.52-1.7-9.35-2.67-6.66-1.68-11.57,1.18-12,0C240.23,383.08,243,380.87,245.91,380Zm5.34,76.09c-7.95,2.48-7.26,8.41-16,16s-19.08,10-28,12c-8.6,2-13.4,1.61-22.69,5.34a71.41,71.41,0,0,0-10.68,5.34,29.94,29.94,0,0,1-5.34-6.68,32.82,32.82,0,0,1-4-12,90.81,90.81,0,0,1,0-26.7s11.31-3.44,17.36-6.67c9.54-5.11,8.6-11.12,20-25.36,6-7.45,12.66-15.62,24-21.36,4.2-2.13,15.88-7.82,28-4,2.09.66,7,1.88,8,5.34a3.94,3.94,0,0,1,0,2.67c-2.05,4.61-17.06,4.5-21.36,6.68-.36.18-1.34.67-1.34,1.33s1,1.16,1.34,1.34c4,2,23.23-4,28,1.33,1.57,1.75,2.12,5.29,1.33,8a8.56,8.56,0,0,1-1.33,2.67c-4.84,6.3-21.38,2-22.69,5.34,0,.13-.35.9,0,1.33.51.64,2.08.16,2.67,0,.16,0,2.77,0,8,0,8.57,0,13.33.08,14.68,2.67,1.21,2.33-.8,5.76-1.34,6.68a11.56,11.56,0,0,1-4,4c-6.4,3.94-14.39,1.35-14.68,2.67-.11.49.93,1.1,1.33,1.34,5.48,3.17,12.09-.61,13.35,1.33.78,1.2-1.05,3.64-1.33,4C261.29,455.05,255.91,454.62,251.25,456.08Z"/><path class="cls-1" d="M227.22,448.07c-1.87,1.21-4.95.17-6.67-1.34-2.12-1.85-2.44-4.61-2.67-6.67-.35-3,.5-3.23,0-5.34-.85-3.51-3.37-3.59-4-6.68-.48-2.31.85-2.67,1.34-6.67.59-4.93-1.06-7.35,0-8,1.28-.8,5.43,1.67,6.67,5.34,1.14,3.38-1.2,4.74,0,8,1.11,3,3.45,2.75,5.34,6.67a15.54,15.54,0,0,1,1.34,5.34C229,442.32,229.51,446.57,227.22,448.07Z"/><path class="cls-1" d="M253.92,480.1c-.59,0-.71,2.45-2.67,21.36-1.52,14.63-1.69,29.37-2.67,44.05-.38,5.6-1,14.43,2.67,16a3.82,3.82,0,0,0,2.67,0c5.29-1.95,4.75-17,4-32C256.28,496.54,255.46,480.07,253.92,480.1Z"/><path class="cls-1" d="M351.36,580.22c-.72,0-1.39-6.89-2.67-20-2.32-23.86-2.61-42.52-2.67-52.06-.21-32.24-.31-48.36,2.67-61.4,4.56-19.94,13.74-41.67,14.68-41.38.18.06.07.86,0,1.34a192.27,192.27,0,0,1-5.34,24,107.05,107.05,0,0,0-4,21.36,92.69,92.69,0,0,0,0,14.68C355.8,491.81,353.94,580.15,351.36,580.22Z"/><path class="cls-1" d="M410.09,580.22c-6.56-1.78-.68-28.07-2.67-61.41-.76-12.73-3.17-25.39-8-50.72-3.38-17.74-4.12-18.45-9.34-44-5.31-26-5-27.53-9.34-48.05-6-28.54-9.17-43-14.69-53.4-3.44-6.47-12.49-23.07-30.7-36-17.25-12.28-33.72-14.88-33.37-16s16.79.4,33.37,9.35a90.46,90.46,0,0,1,30.7,28c1.8,2.61,7.32,10.91,14.69,33.37,5.8,17.69,8.31,30.65,12,49.39,11,55.72,9.26,44.73,12,60.07,7.81,43.52,9.76,64.57,10.68,77.42,1.24,17.34,3.44,50.23-4,52.06A2.75,2.75,0,0,1,410.09,580.22Z"/><path class="cls-2" d="M164.48,169.09a4.36,4.36,0,0,0,1.34,2.67c1.1.85,3.14,1.11,4,0a2.38,2.38,0,0,0,0-2.67c-.47-.69-1-.53-2.67-1.34s-2.25-1.58-2.67-1.33C163.9,166.76,164.33,168.48,164.48,169.09Z"/><path class="cls-2" d="M172.49,175.76a4.36,4.36,0,0,0,1.34,2.67c1.1.85,3.14,1.12,4,0a2.38,2.38,0,0,0,0-2.67c-.47-.69-1-.53-2.67-1.33s-2.25-1.59-2.67-1.34C171.91,173.43,172.34,175.15,172.49,175.76Z"/><path class="cls-2" d="M179.17,173.09a4.3,4.3,0,0,0,1.33,2.67c1.1.85,3.14,1.12,4,0a2.42,2.42,0,0,0,0-2.67c-.48-.69-1-.53-2.67-1.33s-2.26-1.59-2.67-1.34C178.58,170.76,179,172.48,179.17,173.09Z"/><path class="cls-2" d="M181.84,182.43a4.3,4.3,0,0,0,1.33,2.67c1.1.85,3.14,1.12,4,0a2.42,2.42,0,0,0,0-2.67c-.48-.68-1-.53-2.67-1.33s-2.26-1.58-2.67-1.34C181.25,180.11,181.68,181.82,181.84,182.43Z"/><path class="cls-2" d="M176.5,183.77a4.3,4.3,0,0,0,1.33,2.67c1.1.85,3.14,1.12,4,0a2.42,2.42,0,0,0,0-2.67c-.48-.69-1-.53-2.67-1.34s-2.25-1.58-2.67-1.33C175.91,181.44,176.34,183.16,176.5,183.77Z"/><path class="cls-2" d="M169.82,182.43a4.36,4.36,0,0,0,1.34,2.67c1.1.85,3.14,1.12,4,0a2.38,2.38,0,0,0,0-2.67c-.47-.68-1-.53-2.67-1.33s-2.25-1.58-2.67-1.34C169.24,180.11,169.67,181.82,169.82,182.43Z"/><path class="cls-2" d="M176.5,190.44a4.3,4.3,0,0,0,1.33,2.67c1.1.85,3.14,1.12,4,0a2.42,2.42,0,0,0,0-2.67c-.48-.68-1-.53-2.67-1.33s-2.25-1.58-2.67-1.34C175.91,188.12,176.34,189.83,176.5,190.44Z"/><path class="cls-2" d="M183.17,190.44a4.36,4.36,0,0,0,1.34,2.67c1.09.85,3.14,1.12,4,0a2.38,2.38,0,0,0,0-2.67c-.48-.68-1-.53-2.67-1.33s-2.25-1.58-2.67-1.34C182.59,188.12,183,189.83,183.17,190.44Z"/><path class="cls-2" d="M188.51,187.77a4.4,4.4,0,0,0,1.33,2.67c1.1.85,3.15,1.12,4,0a2.4,2.4,0,0,0,0-2.67c-.48-.68-1-.53-2.67-1.33s-2.25-1.58-2.67-1.34C187.93,185.45,188.36,187.16,188.51,187.77Z"/><path class="cls-2" d="M187.18,197.12a4.3,4.3,0,0,0,1.33,2.67c1.1.85,3.14,1.12,4,0a2.38,2.38,0,0,0,0-2.67c-.47-.69-1-.53-2.67-1.34s-2.25-1.58-2.66-1.33C186.59,194.79,187,196.51,187.18,197.12Z"/><path class="cls-2" d="M195.18,199.79a4.36,4.36,0,0,0,1.34,2.67c1.1.85,3.14,1.12,4,0a2.38,2.38,0,0,0,0-2.67c-.47-.69-1-.53-2.67-1.34s-2.25-1.58-2.67-1.33C194.6,197.46,195,199.18,195.18,199.79Z"/><path class="cls-2" d="M201.86,206.46a4.4,4.4,0,0,0,1.33,2.67c1.1.85,3.14,1.12,4,0a2.4,2.4,0,0,0,0-2.67c-.48-.69-1-.53-2.67-1.33s-2.25-1.59-2.67-1.34C201.28,204.14,201.71,205.85,201.86,206.46Z"/><path class="cls-2" d="M205.86,201.12a4.36,4.36,0,0,0,1.34,2.67c1.1.85,3.14,1.12,4,0a2.38,2.38,0,0,0,0-2.67c-.47-.69-1-.53-2.67-1.33s-2.25-1.59-2.67-1.34C205.28,198.8,205.71,200.51,205.86,201.12Z"/><path class="cls-2" d="M207.2,193.11a4.4,4.4,0,0,0,1.33,2.67c1.1.85,3.14,1.12,4,0a2.4,2.4,0,0,0,0-2.67c-.48-.68-1-.53-2.67-1.33s-2.25-1.58-2.67-1.34C206.62,190.79,207.05,192.5,207.2,193.11Z"/><path class="cls-2" d="M209.87,209.13a4.3,4.3,0,0,0,1.33,2.67c1.1.85,3.14,1.12,4,0a2.42,2.42,0,0,0,0-2.67c-.48-.69-1-.53-2.67-1.33s-2.25-1.59-2.67-1.34C209.29,206.8,209.71,208.52,209.87,209.13Z"/><path class="cls-2" d="M213.87,205.13a4.36,4.36,0,0,0,1.34,2.67c1.1.85,3.14,1.11,4,0a2.38,2.38,0,0,0,0-2.67c-.47-.69-1-.53-2.67-1.34s-2.25-1.58-2.67-1.33C213.29,202.8,213.72,204.52,213.87,205.13Z"/><path class="cls-2" d="M213.87,198.45a4.36,4.36,0,0,0,1.34,2.67c1.1.85,3.14,1.12,4,0a2.38,2.38,0,0,0,0-2.67c-.47-.69-1-.53-2.67-1.33s-2.25-1.58-2.67-1.34C213.29,196.13,213.72,197.84,213.87,198.45Z"/><path class="cls-2" d="M217.88,193.11a4.3,4.3,0,0,0,1.33,2.67c1.1.85,3.14,1.12,4,0a2.42,2.42,0,0,0,0-2.67c-.48-.68-1-.53-2.67-1.33s-2.25-1.58-2.67-1.34C217.29,190.79,217.72,192.5,217.88,193.11Z"/><path class="cls-2" d="M209.87,189.11a4.3,4.3,0,0,0,1.33,2.67c1.1.85,3.14,1.12,4,0a2.42,2.42,0,0,0,0-2.67c-.48-.69-1-.53-2.67-1.34s-2.25-1.58-2.67-1.33C209.29,186.78,209.71,188.5,209.87,189.11Z"/><path class="cls-2" d="M225.89,193.11a4.3,4.3,0,0,0,1.33,2.67c1.1.85,3.14,1.12,4,0a2.38,2.38,0,0,0,0-2.67c-.47-.68-1-.53-2.66-1.33s-2.26-1.58-2.67-1.34C225.3,190.79,225.73,192.5,225.89,193.11Z"/><path class="cls-2" d="M231.22,189.11a4.36,4.36,0,0,0,1.34,2.67c1.1.85,3.14,1.12,4,0a2.38,2.38,0,0,0,0-2.67c-.47-.69-1-.53-2.67-1.34s-2.25-1.58-2.67-1.33C230.64,186.78,231.07,188.5,231.22,189.11Z"/><path class="cls-2" d="M236.56,182.43a4.36,4.36,0,0,0,1.34,2.67c1.1.85,3.14,1.12,4,0a2.38,2.38,0,0,0,0-2.67c-.47-.68-1-.53-2.67-1.33s-2.25-1.58-2.67-1.34C236,180.11,236.41,181.82,236.56,182.43Z"/><path class="cls-2" d="M247.24,187.77a4.36,4.36,0,0,0,1.34,2.67c1.1.85,3.14,1.12,4,0a2.38,2.38,0,0,0,0-2.67c-.47-.68-1-.53-2.67-1.33s-2.25-1.58-2.67-1.34C246.66,185.45,247.09,187.16,247.24,187.77Z"/><path class="cls-2" d="M249.91,181.1a4.36,4.36,0,0,0,1.34,2.67c1.1.85,3.14,1.12,4,0a2.38,2.38,0,0,0,0-2.67c-.47-.69-1-.53-2.67-1.34s-2.25-1.58-2.67-1.33C249.33,178.77,249.76,180.49,249.91,181.1Z"/><path class="cls-2" d="M241.9,179.76a4.36,4.36,0,0,0,1.34,2.67c1.1.85,3.14,1.12,4,0a2.38,2.38,0,0,0,0-2.67c-.47-.68-1-.53-2.67-1.33s-2.25-1.58-2.67-1.34C241.32,177.44,241.75,179.16,241.9,179.76Z"/><path class="cls-2" d="M240.57,191.78a4.4,4.4,0,0,0,1.33,2.67c1.1.85,3.14,1.12,4,0a2.4,2.4,0,0,0,0-2.67c-.48-.69-1-.53-2.67-1.34s-2.25-1.58-2.67-1.33C240,189.45,240.42,191.17,240.57,191.78Z"/><path class="cls-2" d="M235.23,198.45a4.4,4.4,0,0,0,1.33,2.67c1.1.85,3.14,1.12,4,0a2.4,2.4,0,0,0,0-2.67c-.48-.69-1-.53-2.67-1.33s-2.25-1.58-2.67-1.34C234.65,196.13,235.08,197.84,235.23,198.45Z"/><path class="cls-2" d="M228.56,199.79a4.3,4.3,0,0,0,1.33,2.67c1.1.85,3.14,1.12,4,0a2.38,2.38,0,0,0,0-2.67c-.47-.69-1-.53-2.67-1.34s-2.25-1.58-2.66-1.33C228,197.46,228.4,199.18,228.56,199.79Z"/><path class="cls-2" d="M223.22,202.46a4.3,4.3,0,0,0,1.33,2.67c1.1.85,3.14,1.12,4,0a2.42,2.42,0,0,0,0-2.67c-.48-.69-1-.53-2.67-1.34s-2.26-1.58-2.67-1.33C222.63,200.13,223.06,201.85,223.22,202.46Z"/><path class="cls-2" d="M221.88,209.13a4.36,4.36,0,0,0,1.34,2.67c1.1.85,3.14,1.12,4,0a2.38,2.38,0,0,0,0-2.67c-.48-.69-1-.53-2.67-1.33s-2.25-1.59-2.67-1.34C221.3,206.8,221.73,208.52,221.88,209.13Z"/><path class="cls-2" d="M219.21,215.81a4.33,4.33,0,0,0,1.34,2.66c1.1.86,3.14,1.12,4,0a2.37,2.37,0,0,0,0-2.66c-.48-.69-1-.53-2.67-1.34s-2.25-1.58-2.67-1.33C218.63,213.48,219.06,215.2,219.21,215.81Z"/><path class="cls-2" d="M229.89,219.81a4.4,4.4,0,0,0,1.33,2.67c1.1.85,3.15,1.12,4,0a2.4,2.4,0,0,0,0-2.67c-.48-.69-1-.53-2.67-1.34s-2.25-1.58-2.67-1.33C229.31,217.48,229.74,219.2,229.89,219.81Z"/><path class="cls-2" d="M235.23,213.14a4.4,4.4,0,0,0,1.33,2.67c1.1.85,3.14,1.11,4,0a2.4,2.4,0,0,0,0-2.67c-.48-.69-1-.53-2.67-1.34s-2.25-1.58-2.67-1.33C234.65,210.81,235.08,212.53,235.23,213.14Z"/><path class="cls-2" d="M232.56,206.46a4.4,4.4,0,0,0,1.33,2.67c1.1.85,3.14,1.12,4,0a2.4,2.4,0,0,0,0-2.67c-.48-.69-1-.53-2.67-1.33s-2.25-1.59-2.67-1.34C232,204.14,232.41,205.85,232.56,206.46Z"/><path class="cls-2" d="M240.57,209.13a4.4,4.4,0,0,0,1.33,2.67c1.1.85,3.14,1.12,4,0a2.4,2.4,0,0,0,0-2.67c-.48-.69-1-.53-2.67-1.33s-2.25-1.59-2.67-1.34C240,206.8,240.42,208.52,240.57,209.13Z"/><path class="cls-2" d="M243.24,203.79a4.4,4.4,0,0,0,1.33,2.67c1.1.85,3.14,1.12,4,0a2.4,2.4,0,0,0,0-2.67c-.48-.69-1-.53-2.67-1.33s-2.25-1.59-2.67-1.34C242.66,201.47,243.09,203.18,243.24,203.79Z"/><path class="cls-2" d="M249.91,203.79a4.36,4.36,0,0,0,1.34,2.67c1.1.85,3.14,1.12,4,0a2.38,2.38,0,0,0,0-2.67c-.47-.69-1-.53-2.67-1.33s-2.25-1.59-2.67-1.34C249.33,201.47,249.76,203.18,249.91,203.79Z"/><path class="cls-2" d="M249.91,195.78a4.36,4.36,0,0,0,1.34,2.67c1.1.85,3.14,1.12,4,0a2.38,2.38,0,0,0,0-2.67c-.47-.68-1-.53-2.67-1.33s-2.25-1.58-2.67-1.34C249.33,193.46,249.76,195.17,249.91,195.78Z"/><path class="cls-2" d="M259.26,201.12a4.3,4.3,0,0,0,1.33,2.67c1.1.85,3.14,1.12,4,0a2.42,2.42,0,0,0,0-2.67c-.48-.69-1-.53-2.67-1.33s-2.25-1.59-2.67-1.34C258.67,198.8,259.1,200.51,259.26,201.12Z"/><path class="cls-2" d="M265.93,205.13a4.36,4.36,0,0,0,1.34,2.67c1.09.85,3.14,1.11,4,0a2.38,2.38,0,0,0,0-2.67c-.48-.69-1-.53-2.67-1.34s-2.25-1.58-2.67-1.33C265.35,202.8,265.78,204.52,265.93,205.13Z"/><path class="cls-2" d="M260.59,210.47a4.36,4.36,0,0,0,1.34,2.67c1.1.85,3.14,1.11,4,0a2.38,2.38,0,0,0,0-2.67c-.48-.69-1-.53-2.67-1.34s-2.25-1.58-2.67-1.33C260,208.14,260.44,209.86,260.59,210.47Z"/><path class="cls-2" d="M255.25,218.47a4.36,4.36,0,0,0,1.34,2.67c1.1.85,3.14,1.12,4,0a2.38,2.38,0,0,0,0-2.67c-.47-.68-1-.53-2.67-1.33s-2.25-1.58-2.67-1.33C254.67,216.15,255.1,217.87,255.25,218.47Z"/><path class="cls-2" d="M257.92,225.15a4.36,4.36,0,0,0,1.34,2.67c1.1.85,3.14,1.12,4,0a2.38,2.38,0,0,0,0-2.67c-.48-.69-1-.53-2.67-1.34s-2.25-1.58-2.67-1.33C257.34,222.82,257.77,224.54,257.92,225.15Z"/><path class="cls-2" d="M261.93,217.14a4.3,4.3,0,0,0,1.33,2.67c1.1.85,3.14,1.12,4,0a2.42,2.42,0,0,0,0-2.67c-.48-.69-1-.53-2.67-1.33s-2.26-1.59-2.67-1.34C261.34,214.81,261.77,216.53,261.93,217.14Z"/><path class="cls-2" d="M265.93,223.81a4.36,4.36,0,0,0,1.34,2.67c1.09.85,3.14,1.12,4,0a2.38,2.38,0,0,0,0-2.67c-.48-.68-1-.53-2.67-1.33s-2.25-1.58-2.67-1.34C265.35,221.49,265.78,223.2,265.93,223.81Z"/><path class="cls-2" d="M268.6,215.81a4.37,4.37,0,0,0,1.33,2.66c1.1.86,3.15,1.12,4,0a2.37,2.37,0,0,0,0-2.66c-.48-.69-1-.53-2.67-1.34s-2.25-1.58-2.67-1.33C268,213.48,268.45,215.2,268.6,215.81Z"/><path class="cls-2" d="M272.6,211.8a4.36,4.36,0,0,0,1.34,2.67c1.1.85,3.14,1.12,4,0a2.38,2.38,0,0,0,0-2.67c-.47-.69-1-.53-2.67-1.33s-2.25-1.59-2.67-1.34C272,209.47,272.45,211.19,272.6,211.8Z"/><path class="cls-2" d="M298,178.43a4.3,4.3,0,0,0,1.33,2.67c1.1.85,3.14,1.12,4,0a2.42,2.42,0,0,0,0-2.67c-.48-.69-1-.53-2.67-1.34s-2.25-1.58-2.67-1.33C297.38,176.1,297.81,177.82,298,178.43Z"/><path class="cls-2" d="M304.64,175.76a4.36,4.36,0,0,0,1.34,2.67c1.1.85,3.14,1.12,4,0a2.38,2.38,0,0,0,0-2.67c-.48-.69-1-.53-2.67-1.33s-2.25-1.59-2.67-1.34C304.06,173.43,304.49,175.15,304.64,175.76Z"/><path class="cls-2" d="M310,182.43a4.4,4.4,0,0,0,1.33,2.67c1.1.85,3.15,1.12,4,0a2.38,2.38,0,0,0,0-2.67c-.48-.68-1-.53-2.67-1.33s-2.25-1.58-2.67-1.34C309.4,180.11,309.83,181.82,310,182.43Z"/><path class="cls-2" d="M304.64,183.77a4.36,4.36,0,0,0,1.34,2.67c1.1.85,3.14,1.12,4,0a2.38,2.38,0,0,0,0-2.67c-.48-.69-1-.53-2.67-1.34s-2.25-1.58-2.67-1.33C304.06,181.44,304.49,183.16,304.64,183.77Z"/><path class="cls-2" d="M299.3,187.77a4.36,4.36,0,0,0,1.34,2.67c1.1.85,3.14,1.12,4,0a2.38,2.38,0,0,0,0-2.67c-.48-.68-1-.53-2.67-1.33s-2.25-1.58-2.67-1.34C298.72,185.45,299.15,187.16,299.3,187.77Z"/><path class="cls-2" d="M307.31,190.44a4.36,4.36,0,0,0,1.34,2.67c1.09.85,3.14,1.12,4,0a2.38,2.38,0,0,0,0-2.67c-.48-.68-1-.53-2.67-1.33s-2.25-1.58-2.67-1.34C306.73,188.12,307.16,189.83,307.31,190.44Z"/><path class="cls-2" d="M304.64,197.12a4.36,4.36,0,0,0,1.34,2.67c1.1.85,3.14,1.12,4,0a2.38,2.38,0,0,0,0-2.67c-.48-.69-1-.53-2.67-1.34s-2.25-1.58-2.67-1.33C304.06,194.79,304.49,196.51,304.64,197.12Z"/><path class="cls-2" d="M296.63,195.78a4.36,4.36,0,0,0,1.34,2.67c1.1.85,3.14,1.12,4,0a2.38,2.38,0,0,0,0-2.67c-.47-.68-1-.53-2.67-1.33s-2.25-1.58-2.67-1.34C296.05,193.46,296.48,195.17,296.63,195.78Z"/><path class="cls-2" d="M299.3,203.79a4.36,4.36,0,0,0,1.34,2.67c1.1.85,3.14,1.12,4,0a2.38,2.38,0,0,0,0-2.67c-.48-.69-1-.53-2.67-1.33s-2.25-1.59-2.67-1.34C298.72,201.47,299.15,203.18,299.3,203.79Z"/><path class="cls-2" d="M291.29,201.12a4.36,4.36,0,0,0,1.34,2.67c1.1.85,3.14,1.12,4,0a2.38,2.38,0,0,0,0-2.67c-.47-.69-1-.53-2.67-1.33s-2.25-1.59-2.67-1.34C290.71,198.8,291.14,200.51,291.29,201.12Z"/><path class="cls-2" d="M296.63,209.13A4.36,4.36,0,0,0,298,211.8c1.1.85,3.14,1.12,4,0a2.38,2.38,0,0,0,0-2.67c-.47-.69-1-.53-2.67-1.33s-2.25-1.59-2.67-1.34C296.05,206.8,296.48,208.52,296.63,209.13Z"/><path class="cls-2" d="M291.29,214.47a4.36,4.36,0,0,0,1.34,2.67c1.1.85,3.14,1.12,4,0a2.38,2.38,0,0,0,0-2.67c-.47-.69-1-.53-2.67-1.33s-2.25-1.59-2.67-1.34C290.71,212.14,291.14,213.86,291.29,214.47Z"/><path class="cls-2" d="M290,206.46a4.4,4.4,0,0,0,1.33,2.67c1.1.85,3.14,1.12,4,0a2.42,2.42,0,0,0,0-2.67c-.48-.69-1-.53-2.67-1.33s-2.25-1.59-2.67-1.34C289.38,204.14,289.81,205.85,290,206.46Z"/><path class="cls-2" d="M282,203.79a4.4,4.4,0,0,0,1.33,2.67c1.1.85,3.14,1.12,4,0a2.4,2.4,0,0,0,0-2.67c-.48-.69-1-.53-2.67-1.33s-2.25-1.59-2.67-1.34C281.37,201.47,281.8,203.18,282,203.79Z"/><path class="cls-2" d="M276.61,207.8a4.4,4.4,0,0,0,1.33,2.67c1.1.85,3.14,1.11,4,0a2.4,2.4,0,0,0,0-2.67c-.48-.69-1-.53-2.67-1.34s-2.25-1.58-2.67-1.33C276,205.47,276.46,207.19,276.61,207.8Z"/><path class="cls-2" d="M276.61,218.47a4.4,4.4,0,0,0,1.33,2.67c1.1.85,3.14,1.12,4,0a2.4,2.4,0,0,0,0-2.67c-.48-.68-1-.53-2.67-1.33s-2.25-1.58-2.67-1.33C276,216.15,276.46,217.87,276.61,218.47Z"/><path class="cls-2" d="M272.6,222.48a4.36,4.36,0,0,0,1.34,2.67c1.1.85,3.14,1.12,4,0a2.38,2.38,0,0,0,0-2.67c-.47-.69-1-.53-2.67-1.34s-2.25-1.58-2.67-1.33C272,220.15,272.45,221.87,272.6,222.48Z"/><path class="cls-2" d="M284.62,218.47a4.4,4.4,0,0,0,1.33,2.67c1.1.85,3.14,1.12,4,0a2.4,2.4,0,0,0,0-2.67c-.48-.68-1-.53-2.67-1.33s-2.25-1.58-2.67-1.33C284,216.15,284.47,217.87,284.62,218.47Z"/><path class="cls-2" d="M284.62,211.8a4.4,4.4,0,0,0,1.33,2.67c1.1.85,3.14,1.12,4,0a2.4,2.4,0,0,0,0-2.67c-.48-.69-1-.53-2.67-1.33s-2.25-1.59-2.67-1.34C284,209.47,284.47,211.19,284.62,211.8Z"/><path class="cls-2" d="M253.92,210.47a4.3,4.3,0,0,0,1.33,2.67c1.1.85,3.14,1.11,4,0a2.42,2.42,0,0,0,0-2.67c-.48-.69-1-.53-2.67-1.34s-2.25-1.58-2.67-1.33C253.34,208.14,253.76,209.86,253.92,210.47Z"/><path class="cls-2" d="M248.58,213.14a4.4,4.4,0,0,0,1.33,2.67c1.1.85,3.14,1.11,4,0a2.42,2.42,0,0,0,0-2.67c-.48-.69-1-.53-2.67-1.34s-2.25-1.58-2.67-1.33C248,210.81,248.43,212.53,248.58,213.14Z"/><path class="cls-2" d="M243.24,217.14a4.4,4.4,0,0,0,1.33,2.67c1.1.85,3.14,1.12,4,0a2.4,2.4,0,0,0,0-2.67c-.48-.69-1-.53-2.67-1.33s-2.25-1.59-2.67-1.34C242.66,214.81,243.09,216.53,243.24,217.14Z"/><path class="cls-2" d="M239.23,222.48a4.36,4.36,0,0,0,1.34,2.67c1.1.85,3.14,1.12,4,0a2.38,2.38,0,0,0,0-2.67c-.47-.69-1-.53-2.67-1.34s-2.25-1.58-2.67-1.33C238.65,220.15,239.08,221.87,239.23,222.48Z"/><path class="cls-2" d="M248.58,223.81a4.4,4.4,0,0,0,1.33,2.67c1.1.85,3.14,1.12,4,0a2.42,2.42,0,0,0,0-2.67c-.48-.68-1-.53-2.67-1.33s-2.25-1.58-2.67-1.34C248,221.49,248.43,223.2,248.58,223.81Z"/><path class="cls-2" d="M197.85,194.45a4.36,4.36,0,0,0,1.34,2.67c1.1.85,3.14,1.12,4,0a2.38,2.38,0,0,0,0-2.67c-.47-.69-1-.53-2.67-1.34s-2.25-1.58-2.67-1.33C197.27,192.12,197.7,193.84,197.85,194.45Z"/><path class="cls-2" d="M199.19,189.11a4.4,4.4,0,0,0,1.33,2.67c1.1.85,3.14,1.12,4,0a2.4,2.4,0,0,0,0-2.67c-.48-.69-1-.53-2.67-1.34s-2.25-1.58-2.67-1.33C198.61,186.78,199,188.5,199.19,189.11Z"/><path class="cls-1" d="M230.56,161.05A35.86,35.86,0,0,1,216,158c-17-7.61-26.15-28.32-22.91-51l-28.61,3.83a4.54,4.54,0,0,1-.63,0,4.67,4.67,0,0,1-.61-9.3l32.53-4.35a4.61,4.61,0,0,1,3.46-1.58H256a4.52,4.52,0,0,1,.89-.69,4.68,4.68,0,0,1,6.39,1.66,3.54,3.54,0,0,0,3,1.76l.4,0a3.53,3.53,0,0,0,2.84-2.31,5.13,5.13,0,0,1,.49-1l.15-.21a5,5,0,0,1,.78-.82l.14-.12a4.61,4.61,0,0,1,1.17-.64l.28-.1a4.22,4.22,0,0,1,1.16-.2l.22,0H334a4.68,4.68,0,0,1,4.36,3c8.67,22.91,2.05,47.74-15.38,57.76a36.31,36.31,0,0,1-32.28,1.54c-13.14-5.9-21.82-20.27-23.29-37.14.3,16.39-6.76,31.13-19.18,38.27A35.55,35.55,0,0,1,230.56,161.05Zm-29.82-58.71c-5.25,21.42,2.32,42.54,18,49.57a29.65,29.65,0,0,0,26.21-1.24c14.31-8.23,19.76-28.82,13-48.33Zm74.75-2.67c-5.25,21.42,2.32,42.54,18,49.57A29.65,29.65,0,0,0,319.66,148c14.31-8.23,19.76-28.82,12.95-48.33Zm-9.24,8.07a58.88,58.88,0,0,1,.95,6.5,60.18,60.18,0,0,1,.23-6.55c-.38,0-.76,0-1.13,0Z"/><path class="cls-1" d="M336.5,96.73A2.66,2.66,0,0,0,334,95H273.89a2.66,2.66,0,0,0-.74.12l-.16.06a2.72,2.72,0,0,0-.65.35l-.07.06a2.9,2.9,0,0,0-.48.51l-.08.1a2.59,2.59,0,0,0-.28.55,5.45,5.45,0,0,1-9.87.9,2.68,2.68,0,0,0-3.66-1,2.72,2.72,0,0,0-.94,1H199.19a2.65,2.65,0,0,0-2.34,1.45l-33.39,4.47a2.67,2.67,0,0,0,.35,5.31l.36,0,31.29-4.19c-4.15,22.37,4.51,43.93,21.32,51.48a34.31,34.31,0,0,0,30.46-1.46c15.09-8.67,21.61-29.13,16.41-49.31a10.7,10.7,0,0,0,2.65.34,11.45,11.45,0,0,0,1.29-.08,11,11,0,0,0,2.13-.5c-2.83,21.22,5.79,41.14,21.81,48.34A34.34,34.34,0,0,0,322,152.05C338.58,142.51,344.82,118.73,336.5,96.73ZM245.91,152.4a31.64,31.64,0,0,1-28,1.34c-16-7.2-25.23-29.43-18.69-53.4h60.07C267.5,122.14,260.66,143.92,245.91,152.4Zm74.75-2.67a31.64,31.64,0,0,1-28,1.34c-16-7.2-25.23-29.43-18.69-53.4H334C342.25,119.47,335.41,141.25,320.66,149.73Z"/><path class="cls-3" d="M296.63,372h-.27A2.67,2.67,0,0,1,294,369a7.44,7.44,0,0,0-.91-4.93c-.89-1.34-2.15-1.84-3.75-2.48-1.94-.77-4.35-1.72-5.74-4.45-2.51-4.9.74-10.8,1.42-11.93a13.47,13.47,0,0,1,4.25-4.36,7.6,7.6,0,0,0,2.44-2.35c1.16-1.87,1.49-4.39,1-7.5a2.67,2.67,0,0,1,5.27-.88c.74,4.43.16,8.19-1.7,11.19a13,13,0,0,1-3.89,3.9,8.19,8.19,0,0,0-2.76,2.74c-.88,1.47-2.27,4.76-1.25,6.76.46.9,1.33,1.27,2.95,1.92a11.89,11.89,0,0,1,6.25,4.5,12.6,12.6,0,0,1,1.76,8.41A2.67,2.67,0,0,1,296.63,372Z"/><path class="cls-3" d="M315.32,372a2.67,2.67,0,0,1-2.38-3.89c1.6-3.11,2.11-5.58,1.41-6.77-.28-.48-.71-.72-1.78-1.25a11.19,11.19,0,0,1-4.81-4c-.49-.74-2.87-4.62-1.69-8.87.7-2.53,2.25-3.68,3.89-4.9a28.68,28.68,0,0,0,3.47-2.94c2-2,5-5,4.6-7,0-.19-.42-1.85-3.81-3.38a2.67,2.67,0,0,1,2.2-4.87c5.26,2.37,6.56,5.59,6.87,7.3.85,4.74-3.15,8.77-6.08,11.7a33.61,33.61,0,0,1-4.06,3.46c-1.46,1.09-1.74,1.34-1.93,2.05-.58,2.09,1,4.46,1,4.48a6.11,6.11,0,0,0,2.76,2.14,8.52,8.52,0,0,1,4,3.33c1.74,3,1.33,6.86-1.27,11.91A2.66,2.66,0,0,1,315.32,372Z"/><path class="cls-3" d="M214.24,185.16c-2.08,0-4.42,0-7.07-.06-12.31-.14-15.33-1.11-17.79-3.37-4-3.67-4.53-8.91-4.86-12.38-.55-5.69.24-14.55,7.14-24.48,3.22-4.64,11.78-17,23.8-15.82,6.89.66,14.75,5.43,15.74,13,1,7.32-4.88,14-11.09,16.21a17.12,17.12,0,0,1-11.07,0,2.67,2.67,0,1,1,1.66-5.07,11.9,11.9,0,0,0,7.61,0c4.12-1.47,8.2-5.9,7.6-10.48-.67-5.07-6.93-8-11-8.37C206,133.52,199,143.61,196,147.92c-6,8.59-6.67,16.11-6.21,20.91.31,3.13.65,6.67,3.15,9,1.05,1,2.93,1.83,14.25,2,10.4.13,15.62.19,19-1.15a17.65,17.65,0,0,0,5.83-3.65,18.76,18.76,0,0,1,7.71-4.42c4.73-1.44,9.38-.94,17.08-.1a100,100,0,0,1,12.89,2.17c3.27.74,4.76,1.08,7.69.53a12.13,12.13,0,0,0,5.75-2.55A23.18,23.18,0,0,1,292,166.5c4.72-1.22,14-2.64,23.12,1.49a18,18,0,0,1,5.77,3.92,16.81,16.81,0,0,0,3.79,2.86c6.43,3.62,18.74,6.68,26.33.28s5.84-18.39,5.76-18.9c-1.07-6.76-5.36-12.73-12.09-16.82-9.89-6-20.23-3.36-23.16-2.41a2.67,2.67,0,0,1-1.65-5.08c3.48-1.13,15.75-4.25,27.58,2.93,8.09,4.91,13.28,12.21,14.6,20.55.25,1.57,2.15,15.6-7.59,23.82-10.43,8.79-25.75,4-32.4.28a21.76,21.76,0,0,1-4.85-3.64,13,13,0,0,0-4.29-2.93c-7.63-3.45-15.55-2.22-19.59-1.18a18,18,0,0,0-7,3.27,17.33,17.33,0,0,1-7.86,3.44c-4,.76-6.34.23-9.86-.57a100,100,0,0,0-12.28-2.07c-7.82-.84-11.43-1.17-15-.1a13.55,13.55,0,0,0-5.77,3.35,22.61,22.61,0,0,1-7.38,4.59C224.87,184.89,220.86,185.16,214.24,185.16Z"/></g></g></svg>