<svg width="688" height="964" viewBox="0 0 688 964" fill="none" xmlns="http://www.w3.org/2000/svg">
<path d="M326.648 347.592C328.134 341.977 310.386 335.338 295.808 323.332C285.572 314.909 273.486 301.036 264.951 277.09C258.542 276.717 252.395 274.414 247.318 270.483C233.83 259.617 232.459 237.817 240.714 224.241C243.636 219.287 251.049 210.022 258.33 211.029C263.118 211.673 265.694 216.479 273.767 217.635C275.958 217.939 278.18 217.939 280.371 217.635C280.47 212.334 280.371 207.842 280.371 204.423C279.843 175.406 275.913 155.06 284.779 144.969C285.462 144.184 286.202 143.45 286.991 142.773C294.503 136.48 302.412 141.121 306.803 136.167C310.006 132.616 310.303 126.852 309.016 122.955C307.034 117.009 302.048 117.339 300.199 111.939C298.152 106.027 301.504 97.9838 306.803 94.3009C311.591 90.9979 315.289 92.9467 324.436 92.0879C334.342 91.1631 335.266 88.2894 350.852 83.2854C359.552 80.4778 366.206 79.2062 379.496 76.6794C384.449 75.7215 395.709 73.6076 408.141 72.2698C452.883 67.497 478.192 76.7289 491.896 72.2698C493.448 71.7579 498.797 69.7926 502.908 72.2698C505.566 73.9214 505.533 76.0188 507.316 76.6794C511.625 78.3309 521.547 69.3962 524.948 59.0413C530.099 43.3025 521.399 22.3118 507.316 14.9626C499.985 11.1311 496.65 13.8561 478.671 8.35661C467.114 4.82239 468.204 3.60027 461.039 1.75059C443.01 -3.22044 437.512 4.95451 412.599 3.68285C399.903 3.08831 398.235 0.842262 386.183 1.48635C375.6 2.03135 369.871 4.12876 361.946 5.89587C338.832 11.0486 331.519 5.68117 311.261 8.09237C294.322 10.1072 278.885 12.2376 267.18 23.5174C259.981 30.4703 257.191 38.0672 251.759 58.7936C242.448 94.1358 237.742 111.889 236.306 129.346C234.014 155.873 235.498 182.591 240.714 208.701C234.838 214.195 230.316 220.979 227.506 228.519C220.275 248.337 224.353 277.007 240.714 283.646C243.207 284.653 250.62 287.032 262.738 281.433C264.641 290.554 267.6 299.421 271.555 307.857C274.708 314.562 292.407 352.283 315.636 351.952C319.747 351.936 325.839 350.664 326.648 347.592Z" fill="#8D8D8D" fill-opacity="0.42"/>
<path d="M245.106 235.158C246.757 234.448 256.184 230.55 264.918 235.158C274.824 240.41 279.1 254.068 275.93 257.205C273.932 259.187 268.368 257.552 264.918 254.992C259.965 251.359 260.724 246.9 256.101 241.78C253.126 238.589 249.317 236.295 245.106 235.158Z" fill="#8D8D8D" fill-opacity="0.42"/>
<path d="M361.913 193.804C360.394 191.542 373.734 174.135 392.77 171.757C406.143 170.105 421.365 175.935 421.415 180.576C421.415 182.574 418.625 184.11 417.007 184.985C408.372 189.659 400.613 185.348 390.591 184.985C373.421 184.358 363.218 195.703 361.913 193.804Z" fill="#8D8D8D" fill-opacity="0.42"/>
<path d="M476.508 171.756C479.513 165.629 496.766 169.164 498.549 169.56C513.722 172.863 526.055 182.623 524.965 184.985C524.238 186.637 517.998 182.805 505.153 182.772C491.863 182.772 486.348 186.752 480.9 182.772C477.301 180.13 474.989 174.861 476.508 171.756Z" fill="#8D8D8D" fill-opacity="0.42"/>
<path d="M399.374 191.063C394.008 190.716 388.956 199.32 388.362 206.504C387.85 212.615 390.277 220.905 394.966 221.929C400.249 223.085 407.679 214.861 408.174 206.504C408.62 199.617 404.492 191.409 399.374 191.063Z" fill="#8D8D8D" fill-opacity="0.42"/>
<path d="M500.761 221.929C495.164 222.342 489.056 214.118 489.733 206.504C490.41 198.891 497.525 192.07 502.941 193.292C508.356 194.514 511.064 204.027 509.545 210.93C508.637 215.158 505.483 221.582 500.761 221.929Z" fill="#8D8D8D" fill-opacity="0.42"/>
<path d="M455.112 232.317C456.251 230.765 465.018 233.226 469.971 239.765C474.214 245.265 476.789 254.794 471.82 262.127C466.206 270.467 454.616 270.384 447.616 267.725C438.057 263.993 433.517 253.836 434.573 252.862C435.63 251.888 444.562 263.844 455.062 262.176C459.916 261.4 465.183 257.668 466.239 252.862C468.336 243.481 453.477 234.514 455.112 232.317Z" fill="#8D8D8D" fill-opacity="0.42"/>
<path d="M434.639 303.497C441.838 302.457 445.041 309.987 454.451 312.316C458.063 313.289 461.868 313.289 465.48 312.316C476.888 308.931 480.603 295.487 485.292 296.875C485.791 297.074 486.245 297.373 486.625 297.753C487.006 298.134 487.305 298.588 487.504 299.088C490.311 305.694 475.947 324.95 458.843 325.512C442.977 326.057 428.333 310.417 430.198 305.694C430.908 304.042 433.566 303.646 434.639 303.497Z" fill="#8D8D8D" fill-opacity="0.42"/>
<path d="M79.8254 795.101C76.1437 792.425 57.0582 813.267 55.5889 814.919C41.2748 830.707 29.7179 848.874 31.3689 850.211C32.475 851.103 37.8242 842.928 53.393 830.393C64.95 821.128 72.6766 816.933 77.6461 806.133C78.0753 805.142 81.9386 796.62 79.8254 795.101Z" fill="#8D8D8D" fill-opacity="0.42"/>
<path d="M298.004 640.784C295.098 648.546 279.083 648.364 242.91 649.603C208.338 650.792 190.078 652.989 190.078 651.799C190.078 651.023 201.057 649.074 223.098 645.193C227.589 644.401 231.039 643.839 235.448 643.327C241.837 642.601 244.693 642.7 256.151 640.784C281.262 636.589 295.164 631.469 298.02 636.374C298.328 637.069 298.485 637.821 298.482 638.581C298.479 639.341 298.316 640.091 298.004 640.784Z" fill="#8D8D8D" fill-opacity="0.42"/>
<path d="M563.565 641.89C545.985 636.627 527.881 633.304 509.578 631.981C480.867 629.901 454.451 632.956 454.468 634.178C454.468 635.086 468.534 634.706 487.487 636.391C510.654 638.429 533.548 642.857 555.805 649.603C556.595 664.291 556.595 679.01 555.805 693.698C554.154 724.796 552.966 742.071 542.597 759.758C536.422 770.145 528.164 779.142 518.344 786.182L452.305 781.773L439.097 768.561C438.371 765.621 437.628 762.682 436.901 759.742C437.628 759.859 438.37 759.859 439.097 759.742C445.982 758.635 449.284 747.19 450.109 744.317C452.437 736.307 450.109 736.059 452.321 728.875C454.864 720.618 458.463 719.346 458.925 713.45C459.086 708.66 457.522 703.971 454.517 700.238C459.668 691.551 459.685 681.18 454.517 673.814C451.3 669.4 446.618 666.274 441.309 664.995C442.901 661.555 443.637 657.782 443.456 653.996C443.314 650.94 442.568 647.942 441.26 645.177C443.119 644.783 444.869 643.987 446.389 642.846C447.909 641.705 449.162 640.246 450.06 638.571C453.015 632.279 448.409 626.003 447.864 625.359C446.675 623.707 443.538 620.404 430.231 618.753C416.924 617.101 408.356 616.011 399.374 620.966C392.444 624.993 387.027 631.183 383.954 638.587C376.26 641.478 368.451 644.665 360.576 648.216L357.505 649.619C342.217 656.655 326.037 683.343 309.032 704.73C300.777 715.151 285.175 734.457 278.175 731.154C277.003 730.593 276.887 729.8 275.963 728.941C267.939 721.509 236.124 744.383 212.053 757.611C194.631 767.123 176.135 774.519 156.96 779.642C156.268 779.961 155.516 780.126 154.755 780.126C153.994 780.126 153.243 779.961 152.551 779.642C147.846 776.851 151.974 762.83 154.764 748.792C154.764 748.792 155.853 743.26 159.172 709.156C160.994 689.325 160.25 669.342 156.96 649.702C156.613 658.191 153.658 727.224 145.947 757.727C144.511 763.359 141.952 771.6 134.919 775.349C129.553 778.222 123.841 777.297 112.878 775.349C104.617 773.881 96.505 771.67 88.6416 768.743C96.4631 774.888 105.45 779.383 115.057 781.955C125.921 784.762 139.36 785.34 139.294 786.364C139.294 786.595 138.568 786.727 138.287 786.793C138.006 786.86 133.334 788.891 123.874 792.97C101.618 802.648 90.4907 807.487 90.8539 808.412C91.2997 809.716 115.14 802.978 139.327 795.2C175.368 783.639 205.251 769.816 236.306 755.564L264.951 742.351C264.951 742.434 264.307 760.32 262.738 779.824C261.88 790.658 261.285 795.001 262.738 801.872C263.801 806.401 265.277 810.824 267.147 815.084C269.634 821.178 272.581 827.074 275.963 832.722C226.086 866 181.856 892.176 145.947 911.994C143.818 913.183 107.281 933.001 62.1928 936.255C46.1782 937.411 33.5151 935.825 24.7319 927.436C17.7152 920.714 15.1066 911.383 13.7198 892.16C12.099 870.834 12.8354 849.394 15.9156 828.23C28.3805 756.67 22.0242 771.154 31.3523 726.827C38.3525 693.5 45.6169 669.338 59.997 621.015C69.1765 590.099 77.1012 565.905 90.8044 537.169C98.1678 521.776 102.361 513.007 110.616 501.892C118.558 491.158 138.435 464.271 172.33 451.191C191.218 443.908 198.168 447.194 229.62 435.766C240.995 431.637 250.092 427.509 256.035 424.751C266.992 434.34 277.3 444.646 286.892 455.601C302.313 473.156 305.433 480.588 317.832 486.467C321.315 488.119 322.19 488.119 346.493 495.286C355.854 498.061 363.498 500.373 368.534 501.892C362.128 497.169 352.321 490.117 339.873 482.074C323.082 471.191 320.457 470.778 313.457 464.436C303.369 455.336 302.494 450.564 289.22 435.783C283.663 429.591 277.777 423.703 271.588 418.145C279.941 412.193 286.131 403.683 289.22 393.9C296.113 400.326 303.481 406.222 311.261 411.539C324.469 420.523 331.073 425.031 339.906 426.964C350.687 429.325 356.977 426.964 359.717 431.373C361.93 434.907 358.991 438.243 357.505 449.011C356.55 455.583 356.55 462.258 357.505 468.829C359.161 477.686 362.946 486.006 368.534 493.073C378.44 506.632 383.756 503.593 388.346 512.891C393.695 523.742 385.754 527.838 390.541 548.168C391.218 550.992 393.199 557.399 397.145 570.199C401.9 585.607 403.039 588.365 403.749 590.017C407.165 597.914 411.606 605.327 416.957 612.064C417.981 588.216 413.061 573.105 408.141 563.56C403.805 556.057 400.82 547.851 399.325 539.315C398.106 532.766 398.106 526.047 399.325 519.497C399.886 516.706 400.315 515.897 408.141 497.45C412.45 487.343 414.547 482.19 412.549 477.632C410.898 473.916 408.223 473.569 408.141 471.026C408.009 466.302 417.188 463.941 427.953 457.814C435.3 453.635 449.069 445.791 456.597 433.553C460.28 427.172 464.714 421.256 469.805 415.932C470.713 414.99 471.456 414.28 472.001 413.718C475.107 423.493 481.293 431.998 489.634 437.963C484.681 448.466 480.091 457.384 476.426 464.387C466.206 483.957 462.624 488.879 456.614 493.04C453.114 495.468 446.295 500.059 436.802 499.646C429.356 499.173 422.326 496.044 416.99 490.827C418.766 494.435 421.239 497.656 424.265 500.303C427.291 502.95 430.812 504.972 434.623 506.252C444.991 509.456 453.774 505.394 456.663 504.056C463.449 500.918 468.633 493.833 478.704 479.812C490.261 463.743 492.787 457.302 494.124 453.388C497.426 443.479 497.063 437.368 496.337 433.57C495.652 429.63 494.151 425.878 491.929 422.554C490.674 420.737 488.627 418.145 478.721 411.539C470.713 406.155 466.157 404.354 463.284 400.506C460.541 396.635 459.007 392.038 458.876 387.294L460.296 386.815C474.26 381.981 487.236 374.663 498.599 365.214C508.97 356.384 517.885 345.972 525.014 334.364C532.758 321.565 540.038 303.646 542.647 250.583C542.647 250.583 547.6 149.61 520.606 87.4472C519.649 85.2507 516.693 78.4465 516.198 78.6447C515.703 78.8428 518.014 86.2581 518.41 87.5297C521.036 96.035 540.798 169.032 531.618 261.697C528.168 296.577 522.191 318.443 509.594 338.856C504.641 346.915 500.299 353.884 491.962 360.887C462.062 386.006 419.549 378.657 406.011 376.328C393.823 374.215 381.966 370.506 370.746 365.296C370.02 367.509 369.277 369.706 368.55 371.902C372.646 375.278 377.071 378.232 381.758 380.721C390.719 385.324 400.421 388.31 410.419 389.54C422.832 391.472 435.468 391.472 447.88 389.54C447.747 396.048 450.11 402.359 454.484 407.179C457.504 410.327 461.312 412.608 465.513 413.785C451.661 428.648 439.213 436.179 430.248 440.209C422.67 443.644 417.04 447.64 406.011 455.634C401.653 458.772 397.41 462.058 397.195 466.666C396.997 470.778 400.233 471.62 401.603 477.681C402.596 482.926 401.818 488.352 399.391 493.106C397.821 496.47 395.572 499.473 392.787 501.925C387.239 499.085 376.574 492.462 370.746 479.894C369.095 476.162 365.116 467.954 366.338 457.847C367.461 448.516 372.05 444.8 370.746 435.799C370.3 431.796 368.776 427.989 366.338 424.784C360.213 417.121 351.33 418.706 337.693 413.752C330.564 411.117 323.882 407.402 317.881 402.736C323.63 388.742 326.624 373.77 326.698 358.641H313.49C315.33 367.353 315.33 376.353 313.49 385.065C312.517 389.617 311.044 394.048 309.098 398.277C303.759 396.558 298.591 394.347 293.661 391.671C287.52 388.368 287.057 387.195 284.845 387.261C277.069 387.493 277.416 400.771 265.033 407.079C262.474 408.368 258.726 409.722 256.217 413.685C254.982 415.688 254.225 417.949 254.005 420.292C238.124 425.657 221.938 430.069 205.532 433.504C185.191 437.781 177.96 437.385 165.908 442.323C156.811 446.055 141.308 453.718 121.826 473.189C102.36 492.942 86.6902 516.107 75.5988 541.528C59.2045 578.225 40.9281 628.084 9.55927 761.988C9.55927 761.988 -5.81143 827.305 2.95532 905.272C3.5282 910.629 5.01939 915.847 7.36346 920.697C16.2623 938.864 35.1991 946.065 38.2204 947.122C55.8035 953.496 71.653 949.186 95.5263 942.712C106.078 939.85 116.389 936.167 126.367 931.697C124.1 936.576 122.613 941.781 121.959 947.122C121.216 953.48 120.456 959.838 124.171 962.563C125.471 963.447 127.007 963.92 128.579 963.92C130.151 963.92 131.687 963.447 132.987 962.563C136.784 959.524 134.011 953.117 135.183 942.745C135.81 937.399 137.298 932.19 139.591 927.32C153.988 921.193 166.007 915.859 174.856 911.879C174.856 911.879 232.922 885.785 280.635 847.949C284.452 845.076 287.484 841.288 289.451 836.933C290.938 833.452 291.691 829.703 291.664 825.918C296.685 823.448 301.832 821.243 307.084 819.312C332.872 809.782 341.424 814.01 364.39 806.1C383.756 799.494 393.447 796.075 399.638 786.282C403.782 779.676 406.11 770.757 415.075 766.463C418.518 764.862 422.294 764.109 426.087 764.267C427.135 768.094 428.614 771.789 430.495 775.282C434.27 782.229 439.536 788.253 445.916 792.921L518.41 797.297C526.644 793.557 534.116 788.327 540.451 781.872C559.751 762.054 562.129 735.845 564.704 702.501C566.228 682.306 565.846 662.013 563.565 641.89ZM405.995 627.572C409.599 626.586 413.402 626.586 417.007 627.572C421.464 628.513 421.96 629.669 428.035 631.981C436.29 635.152 441.243 635.284 441.243 636.391C441.243 637.497 436.736 638.604 432.427 638.587C425.592 638.587 423.314 635.78 416.99 634.178C405.995 631.403 397.888 636.127 397.178 634.178C396.617 632.659 401.19 629.009 405.995 627.572ZM414.811 753.235C401.686 757.331 402.825 767.124 388.395 779.659C373.965 792.194 356.894 796.174 342.167 799.477C327.969 802.78 320.044 802.136 304.706 808.296C298.593 810.738 292.695 813.688 287.074 817.115C283.623 813.879 280.654 810.163 278.258 806.083C274.793 799.968 272.55 793.237 271.654 786.265C269.482 771.647 269.482 756.788 271.654 742.17C271.654 742.17 290.326 736.489 300.315 731.154C316.065 722.715 314.513 712.79 333.335 689.272C343.241 676.968 354.236 663.476 372.958 653.996C379.893 650.478 399.176 641.081 419.186 647.39C422.637 648.48 430.743 650.495 432.394 656.209C432.907 657.634 432.907 659.193 432.394 660.619C429.009 668.232 404.228 668.05 397.129 671.651C396.534 671.948 394.917 672.757 394.917 673.847C394.917 674.937 396.567 675.763 397.129 676.06C403.733 679.363 435.481 669.454 443.357 678.257C445.949 681.147 446.857 686.993 445.552 691.469C445.084 693.056 444.341 694.548 443.357 695.878C435.366 706.283 408.058 699.181 405.896 704.697C405.896 704.912 405.318 706.184 405.896 706.894C406.738 707.951 409.33 707.158 410.304 706.894C410.568 706.894 414.877 706.894 423.512 706.894C437.661 706.894 445.519 707.026 447.748 711.303C449.746 715.151 446.427 720.816 445.536 722.335C443.915 725.05 441.646 727.32 438.932 728.941C428.366 735.448 415.174 731.171 414.695 733.351C414.514 734.16 416.231 735.167 416.891 735.564C425.939 740.799 436.852 734.556 438.932 737.76C440.22 739.742 437.198 743.772 436.736 744.366C431.387 751.517 422.505 750.807 414.811 753.218V753.235Z" fill="#8D8D8D" fill-opacity="0.42"/>
<path d="M375.138 739.99C372.05 741.988 366.965 740.271 364.126 737.777C360.626 734.721 360.097 730.163 359.717 726.761C359.14 721.807 360.543 721.427 359.717 717.942C358.314 712.145 354.154 712.013 353.114 706.91C352.321 703.095 354.517 702.501 355.326 695.895C356.3 687.753 353.576 683.756 355.326 682.683C357.439 681.361 364.291 685.441 366.338 691.502C368.22 697.084 364.357 699.33 366.338 704.714C368.171 709.668 372.034 709.255 375.154 715.729C376.41 718.514 377.16 721.5 377.367 724.548C378.076 730.494 378.918 737.513 375.138 739.99Z" fill="#8D8D8D" fill-opacity="0.42"/>
<path d="M419.219 792.888C418.245 792.888 418.047 796.934 414.811 828.164C412.301 852.325 412.021 876.668 410.403 900.912C409.775 910.161 408.752 924.744 414.811 927.337C416.232 927.867 417.798 927.867 419.219 927.337C427.953 924.116 427.061 899.261 425.823 874.488C423.115 820.038 421.762 792.838 419.219 792.888Z" fill="#8D8D8D" fill-opacity="0.42"/>
<path d="M580.091 958.236C578.903 958.236 577.797 946.857 575.683 925.206C571.853 885.801 571.374 854.984 571.275 839.229C570.928 785.984 570.763 759.362 575.683 737.826C583.212 704.895 598.368 669.008 599.92 669.487C600.217 669.586 600.035 670.907 599.92 671.7C597.829 685.087 594.885 698.326 591.104 711.336C587.712 722.84 585.499 734.66 584.5 746.612C583.859 754.681 583.859 762.788 584.5 770.856C587.422 812.227 584.351 958.121 580.091 958.236Z" fill="#8D8D8D" fill-opacity="0.42"/>
<path d="M677.054 958.236C666.223 955.296 675.931 911.878 672.646 856.817C671.391 835.794 667.412 814.886 659.438 773.053C653.858 743.755 652.636 742.583 644.018 700.387C635.251 657.448 635.763 654.921 628.597 621.032C618.691 573.898 613.458 550.017 604.344 532.842C598.665 522.156 583.724 494.741 553.659 473.387C525.179 453.107 497.988 448.813 498.566 446.963C499.143 445.114 526.286 447.624 553.659 462.405C573.912 473.676 591.265 489.508 604.344 508.647C607.316 512.957 616.43 526.665 628.597 563.758C638.173 592.973 642.317 614.376 648.409 645.326C666.57 737.347 663.697 719.197 668.221 744.531C681.115 816.405 684.335 851.169 685.854 872.391C687.901 901.028 691.533 955.346 679.25 958.368C678.518 958.505 677.764 958.46 677.054 958.236Z" fill="#8D8D8D" fill-opacity="0.42"/>
<path d="M380.652 265.975C372.375 265.995 364.186 264.279 356.614 260.938C328.547 248.37 313.44 214.167 318.789 176.711L271.555 183.036C271.208 183.06 270.861 183.06 270.514 183.036C268.557 183.036 266.673 182.292 265.244 180.953C263.815 179.615 262.949 177.782 262.821 175.829C262.693 173.875 263.312 171.945 264.554 170.431C265.796 168.918 267.567 167.933 269.507 167.677L323.214 160.493C323.926 159.677 324.804 159.022 325.789 158.572C326.774 158.122 327.844 157.887 328.926 157.884H422.653C423.093 157.444 423.587 157.061 424.122 156.744C425.886 155.714 427.986 155.423 429.963 155.937C431.94 156.451 433.633 157.727 434.672 159.486C435.178 160.356 435.9 161.08 436.767 161.59C437.635 162.099 438.619 162.375 439.625 162.392H440.286C441.341 162.246 442.336 161.813 443.163 161.141C443.99 160.468 444.616 159.581 444.974 158.578C445.183 157.999 445.455 157.446 445.783 156.926L446.031 156.579C446.408 156.08 446.84 155.626 447.319 155.225L447.55 155.027C448.139 154.583 448.79 154.227 449.482 153.97L449.944 153.805C450.564 153.606 451.208 153.494 451.859 153.474H452.222H551.43C552.99 153.477 554.512 153.952 555.797 154.836C557.081 155.72 558.069 156.973 558.628 158.429C572.943 196.265 562.013 237.272 533.236 253.82C525.152 258.331 516.134 260.908 506.888 261.349C497.642 261.791 488.419 260.084 479.942 256.363C458.248 246.619 443.918 222.887 441.491 195.026C441.986 222.094 430.33 246.438 409.825 258.229C400.942 263.311 390.885 265.981 380.652 265.975ZM331.419 169.015C322.752 204.39 335.25 239.27 361.137 250.88C368.024 253.883 375.508 255.26 383.012 254.905C390.516 254.55 397.837 252.472 404.41 248.832C428.035 235.24 437.033 201.236 425.873 169.015H331.419ZM454.831 164.606C446.163 199.981 458.661 234.861 484.549 246.471C491.426 249.463 498.899 250.834 506.39 250.479C513.882 250.124 521.191 248.052 527.755 244.423C551.381 230.831 560.379 196.826 549.135 164.606H454.831ZM439.576 177.933C440.298 181.479 440.821 185.063 441.144 188.668C441.074 185.058 441.201 181.447 441.524 177.851C440.896 177.851 440.269 177.851 439.658 177.851L439.576 177.933Z" fill="#5F5F5F"/>
<path d="M555.558 159.75C555.244 158.909 554.68 158.184 553.942 157.674C553.204 157.163 552.328 156.89 551.43 156.893H452.189C451.775 156.901 451.363 156.968 450.968 157.091L450.703 157.19C450.321 157.333 449.96 157.528 449.63 157.768L449.515 157.867C449.218 158.115 448.951 158.398 448.722 158.71L448.59 158.875C448.4 159.158 448.245 159.463 448.128 159.783C447.556 161.409 446.529 162.837 445.169 163.897C443.809 164.956 442.174 165.602 440.457 165.759C438.741 165.916 437.016 165.576 435.487 164.78C433.958 163.984 432.689 162.765 431.833 161.269C431.545 160.764 431.16 160.32 430.7 159.963C430.241 159.606 429.715 159.343 429.154 159.19C428.593 159.037 428.007 158.995 427.429 159.069C426.852 159.142 426.295 159.329 425.79 159.618C425.14 160.027 424.606 160.595 424.238 161.269H328.861C328.059 161.276 327.275 161.503 326.594 161.926C325.912 162.348 325.36 162.949 324.997 163.664L269.871 171.046C268.777 171.211 267.785 171.78 267.092 172.641C266.398 173.503 266.054 174.593 266.127 175.697C266.199 176.801 266.684 177.837 267.485 178.6C268.285 179.362 269.343 179.797 270.449 179.816H271.043L322.702 172.896C315.851 209.84 330.148 245.447 357.901 257.916C365.902 261.419 374.605 263.024 383.328 262.606C392.052 262.188 400.561 259.757 408.191 255.504C433.104 241.186 443.868 207.396 435.283 174.069C436.712 174.438 438.182 174.627 439.658 174.63C440.37 174.626 441.081 174.582 441.788 174.498C442.985 174.34 444.163 174.064 445.305 173.672C440.632 208.717 454.864 241.615 481.313 253.506C489.316 257.011 498.02 258.618 506.746 258.203C515.472 257.788 523.985 255.361 531.618 251.111C558.992 235.356 569.294 196.083 555.558 159.75ZM405.995 251.689C398.977 255.586 391.156 257.813 383.139 258.196C375.122 258.58 367.125 257.111 359.767 253.902C333.351 242.012 318.113 205.299 328.91 165.712H428.085C441.64 201.715 430.347 237.685 405.995 251.689ZM529.406 247.28C522.389 251.176 514.568 253.403 506.551 253.787C498.534 254.171 490.536 252.701 483.178 249.493C456.763 237.602 441.524 200.889 452.321 161.302H551.43C565.051 197.305 553.758 233.275 529.406 247.28Z" fill="#5F5F5F"/>
<path d="M489.733 614.36H489.287C488.703 614.297 488.138 614.117 487.625 613.833C487.112 613.548 486.66 613.164 486.297 612.702C485.934 612.241 485.667 611.711 485.511 611.145C485.356 610.579 485.315 609.988 485.391 609.405C485.847 606.599 485.316 603.722 483.888 601.263C482.419 599.05 480.339 598.225 477.697 597.168C474.494 595.896 470.515 594.327 468.22 589.818C464.076 581.726 469.442 571.982 470.565 570.116C472.324 567.212 474.724 564.748 477.581 562.915C479.199 561.941 480.576 560.615 481.61 559.034C483.525 555.946 484.07 551.784 483.261 546.648C483.068 545.494 483.342 544.311 484.021 543.358C484.701 542.406 485.731 541.762 486.885 541.57C488.039 541.377 489.222 541.651 490.174 542.331C491.126 543.01 491.769 544.041 491.962 545.195C493.183 552.511 492.226 558.721 489.155 563.675C487.499 566.256 485.309 568.453 482.733 570.116C480.873 571.237 479.31 572.789 478.176 574.641C476.723 577.069 474.428 582.502 476.112 585.805C476.872 587.292 478.308 587.903 480.983 588.976C485.151 590.24 488.781 592.854 491.301 596.408C493.867 600.554 494.895 605.47 494.207 610.297C494.119 611.417 493.607 612.461 492.775 613.216C491.944 613.971 490.856 614.38 489.733 614.36Z" fill="#4D4584"/>
<path d="M520.59 614.36C519.834 614.361 519.09 614.168 518.43 613.799C517.77 613.43 517.216 612.897 516.821 612.252C516.427 611.606 516.205 610.871 516.176 610.115C516.148 609.359 516.315 608.608 516.66 607.935C519.302 602.799 520.144 598.72 518.988 596.755C518.526 595.962 517.816 595.566 516.05 594.69C512.828 593.288 510.074 590.997 508.108 588.084C507.299 586.862 503.37 580.454 505.318 573.436C506.474 569.257 509.033 567.358 511.74 565.343C513.776 563.879 515.691 562.255 517.469 560.488C520.771 557.185 525.724 552.23 525.064 548.927C525.064 548.613 524.371 545.872 518.774 543.345C517.707 542.863 516.876 541.978 516.463 540.883C516.05 539.788 516.088 538.574 516.57 537.507C517.051 536.441 517.937 535.609 519.031 535.196C520.126 534.782 521.34 534.821 522.406 535.302C531.09 539.216 533.236 544.534 533.748 547.358C535.152 555.186 528.548 561.842 523.71 566.681C521.631 568.76 519.389 570.671 517.007 572.395C514.597 574.195 514.134 574.608 513.821 575.781C512.863 579.232 515.472 583.146 515.472 583.179C516.615 584.776 518.198 586.004 520.028 586.714C522.749 587.813 525.058 589.736 526.632 592.213C529.505 597.168 528.828 603.543 524.536 611.883C524.176 612.624 523.616 613.25 522.918 613.688C522.22 614.126 521.414 614.359 520.59 614.36Z" fill="#4D4584"/>
<path d="M353.708 305.793C350.274 305.793 346.41 305.793 342.035 305.694C321.712 305.462 316.726 303.86 312.664 300.128C306.06 294.067 305.185 285.413 304.64 279.682C303.732 270.285 305.037 255.653 316.428 239.254C321.745 231.591 335.877 211.178 355.722 213.127C367.097 214.217 380.074 222.094 381.709 234.596C383.36 246.685 373.652 257.717 363.399 261.367C357.475 263.392 351.047 263.392 345.123 261.367C344.549 261.207 344.015 260.932 343.55 260.56C343.086 260.187 342.702 259.724 342.421 259.199C342.141 258.674 341.969 258.098 341.917 257.505C341.866 256.912 341.934 256.314 342.12 255.748C342.305 255.182 342.603 254.66 342.995 254.212C343.388 253.765 343.867 253.401 344.403 253.144C344.94 252.887 345.523 252.741 346.118 252.715C346.713 252.689 347.306 252.784 347.863 252.994C351.938 254.37 356.352 254.37 360.427 252.994C367.229 250.566 373.965 243.25 372.975 235.686C371.869 227.313 361.534 222.474 354.814 221.863C340.104 220.509 328.547 237.173 323.594 244.291C313.688 258.477 312.582 270.896 313.341 278.824C313.853 283.993 314.414 289.839 318.542 293.687C320.275 295.339 323.379 296.709 342.068 296.99C359.239 297.205 367.857 297.304 373.437 295.091C377.01 293.732 380.28 291.684 383.062 289.063C386.66 285.645 391.025 283.142 395.792 281.763C403.601 279.385 411.278 280.211 423.99 281.598C431.155 282.327 438.264 283.524 445.272 285.182C450.67 286.404 453.13 286.966 457.968 286.057C461.447 285.513 464.722 284.06 467.461 281.846C471.792 278.54 476.779 276.198 482.089 274.976C489.881 272.961 505.203 270.616 520.26 277.436C523.827 278.952 527.063 281.152 529.786 283.91C531.638 285.773 533.744 287.363 536.043 288.634C546.659 294.612 566.983 299.666 579.514 289.096C592.045 278.526 589.155 258.725 589.023 257.882C587.257 246.718 580.174 236.859 569.063 230.104C552.734 220.195 535.663 224.555 530.826 226.124C529.714 226.485 528.504 226.39 527.462 225.859C526.42 225.328 525.632 224.404 525.27 223.292C524.909 222.179 525.004 220.969 525.535 219.926C526.066 218.884 526.99 218.096 528.102 217.734C533.847 215.868 554.105 210.716 573.636 222.573C586.993 230.682 595.561 242.738 597.74 256.512C598.153 259.105 601.29 282.275 585.209 295.851C567.99 310.367 542.696 302.457 531.717 296.313C528.781 294.693 526.086 292.669 523.71 290.302C521.699 288.228 519.29 286.582 516.627 285.463C504.03 279.765 490.954 281.796 484.284 283.514C480.087 284.456 476.144 286.299 472.728 288.914C468.946 291.866 464.484 293.82 459.751 294.595C453.147 295.851 449.284 294.975 443.472 293.654C436.792 292.094 430.02 290.953 423.198 290.235C410.287 288.848 404.327 288.303 398.433 290.07C394.846 291.091 391.572 292.993 388.907 295.603C385.374 298.894 381.236 301.468 376.723 303.183C371.258 305.347 364.637 305.793 353.708 305.793Z" fill="#4D4584"/>
</svg>
